<svg width="242" height="208" viewBox="0 0 242 208" fill="none" xmlns="http://www.w3.org/2000/svg">
<path d="M98.0516 114.624C98.2208 114.267 115.127 78.6803 122.001 64.0831C122.18 63.7028 122.359 63.325 122.541 62.9473C131.203 86.7042 141.199 113.869 141.328 114.216L142.507 117.422H172.904V61.9726C172.904 40.7266 163.669 28.5396 147.566 28.5396C137.865 28.5396 130.622 33.2945 124.773 40.3539C123.849 37.7749 122.993 35.3269 122.185 33.0099C115.246 13.134 110.664 0 92.8033 0C77.6794 0 68.2835 10.9353 68.2835 28.5396V117.42H96.7238L98.0516 114.624ZM147.563 38.3265C157.868 38.3265 163.094 46.2824 163.094 61.9726V107.635H149.353C146.021 98.5714 136.297 72.1045 128.799 51.473C133.752 43.8344 139.695 38.3265 147.563 38.3265ZM78.0884 107.635V28.5396C78.0884 19.9843 80.6406 9.78436 92.8008 9.78436C103.227 9.78436 105.756 15.7028 112.921 36.2286C113.865 38.9334 114.872 41.8146 115.978 44.8771C116.614 46.6375 117.285 48.4936 117.985 50.4203C116.26 53.4651 114.655 56.6687 113.125 59.92C107.387 72.097 94.6563 98.9139 90.5162 107.635H78.0884Z" fill="white"/>
<path d="M229.491 149.853V154.147C228.631 153.535 227.727 152.968 226.78 152.452C222.33 150.024 217.361 148.813 211.871 148.813C197.79 148.813 181.843 157.804 181.843 178.352C181.843 197.699 164.222 197.699 164.222 197.699C156.247 197.699 147.541 192.239 147.541 178.352C147.541 164.07 137.857 148.813 118.035 148.813C112.544 148.813 107.574 150.027 103.126 152.455C101.154 153.53 99.3794 154.819 97.7764 156.303C98.5666 157.328 99.2987 158.421 99.9626 159.587C101.419 162.141 102.449 164.914 103.08 167.89C103.095 167.86 103.108 167.827 103.126 167.797C104.653 164.921 106.723 162.753 109.328 161.297C110.994 160.365 112.759 159.753 114.609 159.418C114.998 159.348 115.384 159.275 115.781 159.229C116.452 159.154 117.131 159.111 117.826 159.111C128.486 159.111 135.133 167.253 135.133 178.355C135.133 189.456 142.148 208 164.222 208C188.843 208 194.667 185.386 194.667 178.355C194.667 168.127 200.511 159.111 211.661 159.111C212.381 159.111 213.09 159.154 213.787 159.234C214.196 159.282 214.597 159.358 214.999 159.433C216.816 159.773 218.558 160.38 220.212 161.295C222.852 162.75 224.973 164.919 226.571 167.795C228.169 170.673 228.969 174.192 228.969 178.352C228.969 182.513 228.136 186.049 226.467 188.96C224.798 191.874 222.625 194.058 219.952 195.513C217.276 196.969 214.408 197.697 211.351 197.697C206.554 197.697 202.576 196.017 199.413 192.652C198.35 191.521 197.482 190.219 196.775 188.771C195.757 192.34 193.99 196.453 191.148 200.18C192.779 201.769 194.604 203.152 196.648 204.3C201.028 206.763 205.928 207.992 211.348 207.992C216.839 207.992 221.86 206.761 226.414 204.3C227.495 203.716 228.517 203.074 229.489 202.376V207.995H242V149.853H229.491Z" fill="white"/>
<path d="M188.055 203.618C186.467 205.126 184.657 206.507 182.572 207.657V207.995H194.19C193.917 207.854 193.639 207.72 193.372 207.569C191.403 206.466 189.643 205.136 188.055 203.618Z" fill="white"/>
<path d="M164.745 148.813C159.254 148.813 154.283 150.027 149.835 152.452C147.889 153.512 146.14 154.789 144.554 156.252C147.167 159.632 148.954 163.554 149.929 167.631C151.449 164.838 153.483 162.722 156.038 161.295C158.643 159.839 161.476 159.111 164.535 159.111C167.592 159.111 170.442 159.839 173.085 161.295C175.673 162.722 177.758 164.838 179.346 167.631C180.028 164.521 181.136 161.763 182.572 159.34C183.249 158.199 184.004 157.134 184.817 156.142C187.634 152.699 191.196 150.138 195.083 148.397V130.09H182.572V154.318C181.646 153.643 180.682 153.014 179.654 152.452C175.206 150.027 170.235 148.813 164.745 148.813Z" fill="white"/>
<path d="M50.8447 162.768C50.6654 162.282 50.471 161.803 50.2615 161.337C50.0469 160.861 49.8172 160.395 49.5749 159.942C49.2189 159.285 48.8327 158.665 48.4313 158.063C48.3556 157.952 48.2824 157.839 48.2066 157.731C47.7901 157.131 47.3508 156.56 46.8863 156.021C46.8737 156.006 46.8586 155.993 46.846 155.978C46.3486 155.404 45.821 154.865 45.2682 154.359C44.7052 153.842 44.112 153.364 43.491 152.92H43.5011C43.4481 152.883 43.39 152.852 43.3395 152.815C42.9457 152.538 42.5418 152.276 42.1278 152.029C41.9006 151.893 41.6784 151.752 41.4462 151.623C41.2846 151.535 41.118 151.46 40.9539 151.377C31.7397 146.43 18.7061 147.118 11.8876 153.069V130.093H0V208H11.885V175.023C11.885 169.893 13.1877 165.956 15.7954 163.216C18.4031 160.478 21.9298 159.108 26.3778 159.108C30.8259 159.108 34.3349 160.478 36.9073 163.216C39.4771 165.956 40.7646 169.893 40.7646 175.023V207.995H52.5461V192.682V173.252C52.5461 169.331 51.9832 165.845 50.8573 162.793C50.8548 162.785 50.8497 162.778 50.8447 162.768Z" fill="white"/>
<path d="M96.6909 162.853C94.1185 158.345 90.6096 154.88 86.1615 152.452C81.7109 150.024 76.7428 148.81 71.2522 148.81C65.7615 148.81 60.7909 150.024 56.3429 152.452C55.0125 153.177 53.7705 154.006 52.6118 154.923C52.9828 155.484 53.3438 156.061 53.6745 156.673C53.9194 157.126 54.1491 157.592 54.3612 158.068C54.5707 158.534 54.7626 159.01 54.9443 159.499C54.9469 159.509 54.9519 159.516 54.957 159.527C55.8304 161.896 56.3605 164.531 56.5574 167.425C58.0645 164.735 60.0588 162.685 62.5479 161.295C65.1557 159.839 67.9856 159.111 71.0452 159.111C74.1023 159.111 76.9524 159.839 79.5955 161.295C82.236 162.75 84.3565 164.919 85.9545 167.795C87.5525 170.673 88.3527 174.192 88.3527 178.352C88.3527 182.513 87.5197 186.049 85.851 188.96C84.1824 191.874 82.0088 194.058 79.3354 195.513C76.6595 196.969 73.7918 197.697 70.7347 197.697C65.9383 197.697 61.9597 196.017 58.7966 192.652C57.9636 191.766 57.2567 190.766 56.6483 189.68V192.685V203.792V204.623C60.8717 206.864 65.5646 207.997 70.7347 207.997C76.2253 207.997 81.2464 206.766 85.8005 204.305C90.3521 201.845 93.9494 198.362 96.5925 193.851C99.233 189.343 100.553 184.178 100.553 178.355C100.548 172.527 99.2608 167.362 96.6909 162.853Z" fill="white"/>
<path d="M132.634 188.96C130.965 191.874 128.792 194.058 126.118 195.513C123.442 196.969 120.575 197.697 117.518 197.697C112.721 197.697 108.743 196.017 105.579 192.652C104.56 191.569 103.724 190.323 103.035 188.948C102.384 191.874 101.336 194.602 99.8616 197.118C99.17 198.296 98.4101 199.402 97.5871 200.442C99.1498 201.92 100.884 203.217 102.815 204.303C107.195 206.766 112.095 207.995 117.515 207.995C123.006 207.995 128.027 206.763 132.581 204.303C134.583 203.222 136.385 201.93 138.016 200.452C135.333 196.818 133.641 192.695 132.725 188.784C132.694 188.842 132.667 188.902 132.634 188.96Z" fill="white"/>
</svg>
