<svg width="48" height="49" viewBox="0 0 48 49" fill="none" xmlns="http://www.w3.org/2000/svg">
<path d="M35.34 46.205C35.255 46.12 35.175 46.035 35.095 45.945L13.365 21.5L16.365 18.84L38.1 43.315C38.2309 43.4652 38.3911 43.5871 38.5708 43.673C38.7505 43.759 38.9459 43.8073 39.145 43.815C39.445 43.8289 39.7419 43.7486 39.994 43.5854C40.2462 43.4222 40.441 43.1843 40.5512 42.9049C40.6614 42.6255 40.6815 42.3187 40.6086 42.0273C40.5358 41.7359 40.3737 41.4746 40.145 41.28L40.1 41.24L28.66 30.88L31.345 27.915L42.74 38.24C43.2949 38.7173 43.7477 39.3016 44.0714 39.958C44.3952 40.6145 44.5831 41.3295 44.6239 42.0602C44.6648 42.791 44.5578 43.5225 44.3094 44.2109C44.0609 44.8994 43.676 45.5306 43.1779 46.0668C42.6797 46.603 42.0784 47.0332 41.4101 47.3315C40.7418 47.6299 40.0201 47.7903 39.2883 47.8032C38.5565 47.8161 37.8297 47.6812 37.1512 47.4066C36.4728 47.132 35.8568 46.7233 35.34 46.205" fill="white"/>
<path d="M3.41503 20.535C-0.669972 16.45 -1.15997 10.3 2.32003 6.82499C5.80003 3.34999 11.95 3.82499 16.03 7.91499C20.11 12.005 20.605 18.15 17.125 21.63C13.645 25.11 7.49503 24.63 3.41503 20.535ZM6.23003 17.715C8.76003 20.245 12.38 20.715 14.305 18.81C16.23 16.905 15.74 13.26 13.215 10.735C10.69 8.20999 7.06503 7.73499 5.14003 9.63999C3.21503 11.545 3.70503 15.19 6.23003 17.715Z" fill="white"/>
<path d="M2.69002 46.42C2.15689 45.8894 1.73945 45.2541 1.46407 44.5541C1.18868 43.8542 1.0613 43.1048 1.08995 42.3532C1.11861 41.6015 1.30269 40.864 1.63057 40.187C1.95845 39.5101 2.42303 38.9084 2.99501 38.42L14.4 28.105L17.045 31.105L5.60503 41.5C5.41096 41.6617 5.26264 41.8714 5.17491 42.1083C5.08718 42.3451 5.0631 42.6009 5.10503 42.85C5.13591 43.028 5.2022 43.198 5.3 43.35C5.43836 43.5722 5.63511 43.7523 5.86876 43.8704C6.10241 43.9886 6.36399 44.0403 6.62502 44.02C7.01402 43.9819 7.37281 43.7936 7.62502 43.495L27.335 21.345C27.6351 21.0008 28.0056 20.725 28.4213 20.5361C28.837 20.3473 29.2884 20.2497 29.745 20.25H31.29C32.2021 20.2521 33.0777 19.8925 33.725 19.25L44.51 8.46497L47.34 11.295L36.555 22.08C35.1582 23.4756 33.2646 24.2597 31.29 24.26H30.105L10.605 46.18C10.1146 46.7405 9.51424 47.1943 8.84123 47.5133C8.16823 47.8324 7.43687 48.0098 6.69249 48.0346C5.94811 48.0595 5.20656 47.9312 4.51378 47.6578C3.821 47.3843 3.19176 46.9715 2.66502 46.445" fill="white"/>
<path d="M29.6251 17.8199C29.4391 17.6341 29.2916 17.4136 29.191 17.1708C29.0903 16.928 29.0385 16.6677 29.0385 16.4049C29.0385 16.1421 29.0903 15.8818 29.191 15.639C29.2916 15.3962 29.4391 15.1756 29.6251 14.9899L40.3551 4.25989L43.1851 7.08989L32.4551 17.8199C32.2693 18.0058 32.0488 18.1534 31.806 18.254C31.5632 18.3547 31.3029 18.4065 31.0401 18.4065C30.7773 18.4065 30.517 18.3547 30.2742 18.254C30.0314 18.1534 29.8108 18.0058 29.6251 17.8199" fill="white"/>
<path d="M23.69 17.7599C23.3394 16.6104 23.2933 15.3895 23.5562 14.2168C23.8191 13.0441 24.3821 11.9597 25.19 11.0699L25.395 10.8549L36.18 0.0699463L39 2.89995L28.21 13.6849C27.5679 14.3325 27.2084 15.208 27.21 16.1199V17.7249C27.2103 17.8804 27.1796 18.0344 27.1195 18.1778C27.0593 18.3212 26.9711 18.4512 26.86 18.5599C26.6274 18.7928 26.3383 18.9612 26.0211 19.0487C25.7038 19.1362 25.3693 19.1398 25.0502 19.0592C24.7311 18.9785 24.4385 18.8164 24.2009 18.5886C23.9634 18.3609 23.789 18.0753 23.695 17.7599" fill="white"/>
</svg>
