<svg width="32" height="50" viewBox="0 0 32 50" fill="none" xmlns="http://www.w3.org/2000/svg">
<path d="M2.51537 49.11L11.5504 28.175L15.6504 29.945L12.9254 36.265L26.0504 26.96C26.1404 26.895 26.2154 26.835 26.2804 26.78H4.82537C2.08537 26.78 0.630368 25.28 0.185368 23.865C-0.414632 21.99 0.465371 19.93 2.48537 18.5L28.5904 0L19.5904 20.845L15.4904 19.075L18.1754 12.855L5.05037 22.11C4.96907 22.1638 4.89215 22.224 4.82036 22.29H26.2754C29.0154 22.29 30.4704 23.79 30.9154 25.2C31.5154 27.08 30.6354 29.135 28.6154 30.57L2.51537 49.11Z" fill="white"/>
</svg>
