<svg width="46" height="46" viewBox="0 0 46 46" fill="none" xmlns="http://www.w3.org/2000/svg">
<path d="M26.395 34.9851C25.9026 35.1295 25.4016 35.2431 24.895 35.3251C23.4151 35.5594 21.9055 35.5324 20.435 35.2451C18.6092 34.8942 16.8708 34.1856 15.32 33.1601C14.0534 32.3441 12.976 31.2667 12.16 30.0001C11.133 28.4458 10.407 26.7124 10.02 24.8901C9.57742 22.8582 9.67206 20.746 10.2946 18.7618C10.9171 16.7776 12.046 14.99 13.57 13.5751C13.9877 13.1553 14.2222 12.5872 14.2222 11.9951C14.2222 11.4029 13.9877 10.8348 13.57 10.4151L8.215 5.06006L5.06 8.21506L8.605 11.7601C8.69998 11.8456 8.7586 11.9642 8.76883 12.0916C8.77906 12.219 8.74011 12.3455 8.66 12.4451C6.87086 14.7674 5.74739 17.5329 5.41 20.4451H0V24.9051H5.47C5.94098 27.9207 7.14257 30.7754 8.97 33.2201L5.07 37.1201L8.225 40.2751L12.13 36.3701C14.587 38.1539 17.4373 39.3201 20.44 39.7701V45.3351H24.9V39.8501C27.0492 39.6137 29.1288 38.9471 31.015 37.8901L28.66 35.5301C28.3684 35.2457 28.0056 35.0451 27.6097 34.9492C27.2138 34.8533 26.7994 34.8657 26.41 34.9851" fill="white"/>
<path d="M39.9199 24.89H45.3199V20.425H39.8449C39.3716 17.4146 38.1701 14.5654 36.3449 12.125L40.2549 8.215L37.0999 5.06L33.1849 8.97C30.731 7.18743 27.8842 6.02129 24.8849 5.57V0H20.4299V5.5C18.2794 5.72462 16.1971 6.38469 14.3099 7.44L16.6599 9.795C16.9512 10.0816 17.3148 10.2837 17.712 10.3797C18.1092 10.4757 18.525 10.462 18.9149 10.34C19.4074 10.1957 19.9084 10.0822 20.4149 10C21.8951 9.76727 23.4047 9.79604 24.8749 10.085C26.7025 10.4297 28.443 11.1351 29.9949 12.16C30.6195 12.5724 31.2037 13.0428 31.7399 13.565C32.2704 14.105 32.7461 14.6962 33.1599 15.33C34.1891 16.8777 34.9152 18.6066 35.2999 20.425C35.7454 22.4587 35.6527 24.5735 35.031 26.5604C34.4093 28.5474 33.2801 30.3378 31.7549 31.755C31.5471 31.9618 31.3821 32.2076 31.2696 32.4783C31.157 32.749 31.099 33.0393 31.099 33.3325C31.099 33.6257 31.157 33.916 31.2696 34.1867C31.3821 34.4574 31.5471 34.7032 31.7549 34.91L37.1099 40.27L40.2699 37.11L36.7249 33.565C36.6322 33.4775 36.5763 33.3578 36.5689 33.2304C36.5615 33.1031 36.603 32.9777 36.6849 32.88C38.4721 30.5565 39.5953 27.7916 39.9349 24.88" fill="white"/>
</svg>
